<?xml version="1.0" standalone="no"?>
<!DOCTYPE svg PUBLIC "-//W3C//DTD SVG 20010904//EN"
 "http://www.w3.org/TR/2001/REC-SVG-20010904/DTD/svg10.dtd">
<svg version="1.0" xmlns="http://www.w3.org/2000/svg"
 width="500.000000pt" height="500.000000pt" viewBox="0 0 500.000000 500.000000"
 preserveAspectRatio="xMidYMid meet">

<g transform="translate(0.000000,500.000000) scale(0.100000,-0.100000)"
fill="#000000" stroke="none">
<path d="M2395 3560 c13 -45 18 -180 7 -180 -6 0 -13 13 -17 29 -3 17 -24 46
-46 65 -34 31 -46 36 -87 35 -43 0 -45 -1 -22 -11 49 -22 100 -61 120 -93 27
-44 25 -49 -7 -25 -60 43 -180 33 -228 -20 -21 -24 -21 -24 30 -5 46 16 133
19 155 5 12 -8 9 -10 -13 -10 -59 0 -117 -51 -133 -116 l-7 -29 34 31 c38 35
119 80 119 65 0 -5 -7 -12 -15 -15 -24 -9 -55 -86 -55 -138 0 -27 3 -48 8 -48
4 0 15 20 25 44 36 88 42 85 43 -26 0 -65 7 -125 17 -163 45 -158 31 -279 -46
-399 -38 -58 -172 -206 -188 -206 -4 0 -3 17 2 38 5 20 12 91 15 157 9 165 -5
242 -68 367 -43 85 -57 104 -96 129 -31 19 -39 29 -26 29 34 -1 106 -39 140
-76 41 -43 44 -24 6 31 -44 63 -88 88 -145 81 -56 -6 -54 3 9 40 61 36 141 42
217 16 l58 -19 -23 25 c-29 31 -114 72 -151 72 -15 0 -42 -6 -60 -14 -31 -13
-90 -70 -99 -98 -3 -7 -8 -10 -12 -7 -10 10 24 112 54 159 16 25 45 61 64 79
70 68 31 57 -62 -18 -51 -40 -90 -104 -94 -149 -3 -36 -9 -40 -29 -16 -22 26
-66 44 -111 44 l-43 0 70 -34 c39 -19 81 -47 95 -62 23 -25 23 -26 3 -15 -31
16 -109 14 -143 -4 -28 -15 -70 -60 -70 -76 0 -5 17 2 38 15 41 28 133 51 159
42 12 -5 6 -12 -26 -28 -59 -29 -94 -84 -99 -159 -2 -32 -2 -59 1 -59 3 0 13
24 21 54 10 34 30 69 56 97 l41 44 -17 -35 c-9 -19 -17 -51 -17 -71 0 -36 39
-119 55 -119 8 0 4 31 -8 69 -7 22 8 111 17 105 5 -3 9 -14 9 -25 0 -34 29
-78 72 -109 55 -40 63 -38 34 9 -48 75 -85 191 -62 191 17 0 121 -110 142
-150 11 -22 19 -65 22 -115 3 -69 0 -93 -27 -175 -43 -135 -133 -277 -217
-342 -24 -19 -25 -19 -70 3 -48 23 -99 88 -110 139 -16 73 -24 58 -18 -35 19
-299 135 -372 389 -246 220 110 559 413 925 826 224 252 225 260 5 48 -202
-194 -363 -340 -456 -414 l-37 -29 5 103 c4 88 1 115 -21 197 -52 189 -52 190
-23 233 36 53 50 102 44 151 -5 37 -4 39 8 22 21 -28 29 -104 18 -158 -12 -62
-1 -61 26 1 30 71 28 119 -10 170 -29 41 -30 43 -7 36 86 -25 168 -117 184
-208 l7 -42 9 30 c13 44 0 129 -25 166 -29 44 -74 68 -137 76 -50 6 -51 7 -29
19 49 25 143 35 219 23 39 -6 74 -9 76 -6 2 2 -22 14 -53 27 -78 30 -179 38
-221 16 -42 -22 -45 -21 -37 13 8 38 -9 103 -36 133 l-21 23 7 -25z m-18 -327
c-4 -32 -12 -76 -20 -98 -13 -36 -15 -38 -21 -18 -11 34 23 173 42 173 2 0 2
-26 -1 -57z"/>
</g>
</svg>
